<?xml version="1.0" encoding="UTF-8"?>
<!DOCTYPE svg PUBLIC "-//W3C//DTD SVG 1.1//EN" "http://www.w3.org/Graphics/SVG/1.1/DTD/svg11.dtd">
<!-- Creator: CorelDRAW 2018 (64 Bit) -->
<svg xmlns="http://www.w3.org/2000/svg" xml:space="preserve" width="30.12mm" height="15.98mm" version="1.1" style="shape-rendering:geometricPrecision; text-rendering:geometricPrecision; image-rendering:optimizeQuality; fill-rule:evenodd; clip-rule:evenodd"
viewBox="0 0 537.64 285.24"
 xmlns:xlink="http://www.w3.org/1999/xlink">
 <defs>
  <style type="text/css">
   <![CDATA[
    .fil0 {fill:#AFDA00}
   ]]>
  </style>
 </defs>
 <g id="Ebene_x0020_1">
  <metadata id="CorelCorpID_0Corel-Layer"/>
  <path class="fil0" d="M-0 74.43l0 25.88c9.64,13.03 16.24,35.7 42.13,35.7l13.03 0c22.67,0 42.13,-25.88 42.13,-48.55 0,-25.88 -22.67,-48.55 -45.34,-48.55l-3.21 0c-32.31,0 -35.7,19.46 -48.55,35.7l-0.18 -0.18zm233.3 -74.43l-22.67 0c-42.13,25.88 -90.68,64.8 -90.68,129.59l0 35.7c0,42.13 58.37,119.95 100.5,119.95l6.43 0c22.67,0 42.13,-22.67 42.13,-45.34l0 -9.64c0,-32.31 -51.76,-48.55 -51.76,-81.04l0 -13.03c0,-32.31 51.76,-48.55 51.76,-81.04l0 -13.03c0,-25.88 -22.67,-32.31 -35.7,-42.13zm19.46 142.62c0,25.88 19.46,48.55 48.55,48.55 25.88,0 32.31,-16.24 48.55,-25.88 0,29.1 16.24,51.76 42.13,51.76l3.21 0c29.1,0 48.55,-19.46 48.55,-48.55 19.46,6.43 16.24,22.67 48.55,22.67 25.88,0 45.34,-19.46 45.34,-45.34l0 -9.64c0,-35.7 -87.46,-97.1 -129.59,-97.1l-19.46 0c-51.76,0 -136.02,58.37 -136.02,103.71l0.18 -0.18z"/>
 </g>
</svg>
